<?xml version="1.0" ?><!DOCTYPE svg  PUBLIC '-//W3C//DTD SVG 1.1//EN'  'http://www.w3.org/Graphics/SVG/1.1/DTD/svg11.dtd'><svg enable-background="new 0 0 100 100" height="100px" id="Layer_1" version="1.1" viewBox="0 0 100 100" width="100px" xml:space="preserve" xmlns="http://www.w3.org/2000/svg" xmlns:xlink="http://www.w3.org/1999/xlink"><path d="M78.747,42.094l-9.333-21c-0.035-0.078-0.08-0.152-0.134-0.22l-12.833-16c-0.179-0.222-0.443-0.357-0.728-0.373  c-0.279-0.012-0.562,0.093-0.763,0.295L35.29,24.629c-0.143,0.145-0.239,0.328-0.274,0.528l-2.5,14  c-0.01,0.058-0.016,0.117-0.016,0.176V87.75c0,0.245,0.09,0.481,0.252,0.664l3.333,3.75c0.19,0.214,0.462,0.336,0.748,0.336h9.359  c0.097,0,0.194-0.015,0.287-0.042l5.432-1.63l21.453-0.661c0.15-0.005,0.297-0.043,0.43-0.112l4.5-2.334  c0.332-0.172,0.54-0.515,0.54-0.888V42.5C78.833,42.36,78.804,42.222,78.747,42.094z M76.833,42.712v4.318l-2.971-1.571  l-9.406-16.542L57.62,9.533l10.019,12.491L76.833,42.712z M53,48.265l10.986-18.151L73,45.965v42.212l-20,0.617V48.265z   M36.93,25.815L55.588,7l0.139,0.174l7.723,21.895L52.138,47.758l-4.817,2.836L37.04,45.132l-2.54-4.946v-0.764L36.93,25.815z   M34.5,87.37V42.375l1.667,3.246v43.624L34.5,87.37z M46.046,90.5h-8.763l-0.116-0.13V46.332l9.667,5.135v38.797L46.046,90.5z   M51.719,88.833c-0.087,0.003-0.173,0.018-0.256,0.042l-3.629,1.089V51.453L52,49v39.824L51.719,88.833z M74,87.695V46.664  l2.833,1.498v38.063L74,87.695z"/></svg>